<svg width="24" height="24" viewBox="0 0 24 24" fill="none" xmlns="http://www.w3.org/2000/svg">
<path fill-rule="evenodd" clip-rule="evenodd" d="M15.791 12.75H3.75C3.336 12.75 3 12.414 3 12C3 11.586 3.336 11.25 3.75 11.25H15.791C16.205 11.25 16.541 11.586 16.541 12C16.541 12.414 16.205 12.75 15.791 12.75Z" fill="#130F26"/>
<path fill-rule="evenodd" clip-rule="evenodd" d="M12.863 15.6647C12.671 15.6647 12.478 15.5917 12.332 15.4437C12.039 15.1497 12.041 14.6757 12.334 14.3837L14.728 11.9997L12.334 9.61474C12.041 9.32274 12.039 8.84874 12.332 8.55474C12.625 8.26074 13.099 8.26074 13.392 8.55274L16.321 11.4687C16.463 11.6087 16.542 11.8007 16.542 11.9997C16.542 12.1987 16.463 12.3907 16.321 12.5307L13.392 15.4457C13.246 15.5917 13.054 15.6647 12.863 15.6647Z" fill="#130F26"/>
<path fill-rule="evenodd" clip-rule="evenodd" d="M17.0434 22H12.1584C9.71937 22 7.73438 20.015 7.73438 17.575V16.633C7.73438 16.219 8.07037 15.883 8.48438 15.883C8.89838 15.883 9.23438 16.219 9.23438 16.633V17.575C9.23438 19.187 10.5464 20.5 12.1584 20.5H17.0434C18.6624 20.5 19.9794 19.184 19.9794 17.564V6.425C19.9794 4.813 18.6664 3.5 17.0544 3.5H12.1694C10.5514 3.5 9.23438 4.816 9.23438 6.434V7.367C9.23438 7.781 8.89838 8.117 8.48438 8.117C8.07037 8.117 7.73438 7.781 7.73438 7.367V6.434C7.73438 3.989 9.72438 2 12.1694 2H17.0544C19.4934 2 21.4794 3.985 21.4794 6.425V17.564C21.4794 20.01 19.4884 22 17.0434 22Z" fill="#130F26"/>
</svg>
