<svg width="273" height="273" viewBox="0 0 273 273" fill="none" xmlns="http://www.w3.org/2000/svg">
<g opacity="0.5">
<path d="M22.2109 136.499C22.2109 165.46 33.7159 193.236 54.1949 213.715C74.6739 234.194 102.449 245.699 131.411 245.699C160.373 245.699 188.148 234.194 208.627 213.715C229.106 193.236 240.611 165.46 240.611 136.499C240.611 107.537 229.106 79.7617 208.627 59.2828C188.148 38.8038 160.373 27.2988 131.411 27.2988C102.449 27.2988 74.6739 38.8038 54.1949 59.2828C33.7159 79.7617 22.2109 107.537 22.2109 136.499Z" fill="#D9EDFF"/>
<path d="M182.914 205.583H81.0851C79.2619 205.583 77.5135 204.859 76.2243 203.57C74.9352 202.281 74.2109 200.532 74.2109 198.709V66.883C74.2109 64.9824 74.966 63.1597 76.3099 61.8157C77.6538 60.4718 79.4766 59.7168 81.3772 59.7168H182.606C184.506 59.7168 186.329 60.4718 187.673 61.8157C189.017 63.1597 189.772 64.9824 189.772 66.883V198.709C189.773 200.53 189.051 202.276 187.765 203.565C186.479 204.854 184.735 205.58 182.914 205.583Z" fill="#B0D9FF"/>
<path d="M182.914 205.583H81.0851C79.2619 205.583 77.5135 204.859 76.2243 203.57C74.9352 202.281 74.2109 200.532 74.2109 198.709V66.883C74.2109 64.9824 74.966 63.1597 76.3099 61.8157C77.6538 60.4718 79.4766 59.7168 81.3772 59.7168H182.606C184.506 59.7168 186.329 60.4718 187.673 61.8157C189.017 63.1597 189.772 64.9824 189.772 66.883V198.709C189.773 200.53 189.051 202.276 187.765 203.565C186.479 204.854 184.735 205.58 182.914 205.583V205.583Z" stroke="#020064" stroke-width="2.73" stroke-linecap="round" stroke-linejoin="round"/>
<path d="M85.5781 71.0801H178.404V194.217H85.5781V71.0801Z" fill="white"/>
<path d="M178.4 113.264L151.444 142.475C149.744 144.322 148.846 146.768 148.949 149.276C149.051 151.784 150.145 154.149 151.99 155.852C153.147 156.919 154.556 157.676 156.085 158.052L147.321 166.818L148.662 168.159L136.824 179.993C136.295 180.521 135.932 181.193 135.783 181.926C135.634 182.659 135.705 183.419 135.987 184.112C136.268 184.805 136.749 185.399 137.367 185.82C137.985 186.24 138.714 186.469 139.462 186.477C139.737 186.476 140.011 186.448 140.281 186.392C150.655 184.186 155.932 181 155.992 176.911L156.707 176.193L159.388 178.874L165.981 172.262C166.448 172.636 166.949 172.966 167.477 173.247C169.22 174.175 171.21 174.535 173.168 174.277C175.126 174.018 176.954 173.154 178.397 171.806L178.4 113.264Z" fill="#B0D9FF"/>
<path d="M85.5781 71.0801H178.404V194.217H85.5781V71.0801Z" stroke="#020064" stroke-width="2.73" stroke-linecap="round" stroke-linejoin="round"/>
<path d="M98.8125 101.392H156.697" stroke="#020064" stroke-width="2.73" stroke-linecap="round" stroke-linejoin="round"/>
<path d="M98.8125 118.439H156.697" stroke="#020064" stroke-width="2.73" stroke-linecap="round" stroke-linejoin="round"/>
<path d="M98.8125 137.386H139.156" stroke="#020064" stroke-width="2.73" stroke-linecap="round" stroke-linejoin="round"/>
<path d="M98.8125 167.894H139.156" stroke="#020064" stroke-width="2.73" stroke-linecap="round" stroke-linejoin="round"/>
<path d="M106.066 54.0303H157.92C158.829 54.0332 159.701 54.3966 160.343 55.0408C160.985 55.6851 161.346 56.5577 161.346 57.4673V75.2123C161.346 76.1246 160.983 76.9996 160.338 77.6446C159.693 78.2897 158.818 78.6521 157.906 78.6521H106.069C105.156 78.6521 104.281 78.2897 103.636 77.6446C102.991 76.9996 102.629 76.1246 102.629 75.2123V57.4673C102.629 56.5558 102.991 55.6815 103.636 55.037C104.28 54.3924 105.154 54.0303 106.066 54.0303Z" fill="white"/>
<path d="M106.066 54.0303H157.92C158.829 54.0332 159.701 54.3966 160.343 55.0408C160.985 55.6851 161.346 56.5577 161.346 57.4673V75.2123C161.346 76.1246 160.983 76.9996 160.338 77.6446C159.693 78.2897 158.818 78.6521 157.906 78.6521H106.069C105.156 78.6521 104.281 78.2897 103.636 77.6446C102.991 76.9996 102.629 76.1246 102.629 75.2123V57.4673C102.629 56.5558 102.991 55.6815 103.636 55.037C104.28 54.3924 105.154 54.0303 106.066 54.0303V54.0303Z" stroke="#020064" stroke-width="2.73" stroke-linecap="round" stroke-linejoin="round"/>
<path d="M115.891 71.0801H148.096" stroke="#020064" stroke-width="2.73" stroke-linecap="round" stroke-linejoin="round"/>
<path d="M123.461 52.1362C123.461 53.3802 123.706 54.6121 124.182 55.7614C124.658 56.9107 125.356 57.955 126.236 58.8347C127.115 59.7143 128.16 60.4121 129.309 60.8882C130.458 61.3643 131.69 61.6093 132.934 61.6093C134.178 61.6093 135.41 61.3643 136.559 60.8882C137.709 60.4121 138.753 59.7143 139.633 58.8347C140.512 57.955 141.21 56.9107 141.686 55.7614C142.162 54.6121 142.407 53.3802 142.407 52.1362C142.407 50.8922 142.162 49.6603 141.686 48.511C141.21 47.3617 140.512 46.3173 139.633 45.4377C138.753 44.558 137.709 43.8602 136.559 43.3842C135.41 42.9081 134.178 42.6631 132.934 42.6631C131.69 42.6631 130.458 42.9081 129.309 43.3842C128.16 43.8602 127.115 44.558 126.236 45.4377C125.356 46.3173 124.658 47.3617 124.182 48.511C123.706 49.6603 123.461 50.8922 123.461 52.1362Z" fill="white"/>
<path d="M123.461 52.1362C123.461 53.3802 123.706 54.6121 124.182 55.7614C124.658 56.9107 125.356 57.955 126.236 58.8347C127.115 59.7143 128.16 60.4121 129.309 60.8882C130.458 61.3643 131.69 61.6093 132.934 61.6093C134.178 61.6093 135.41 61.3643 136.559 60.8882C137.709 60.4121 138.753 59.7143 139.633 58.8347C140.512 57.955 141.21 56.9107 141.686 55.7614C142.162 54.6121 142.407 53.3802 142.407 52.1362C142.407 50.8922 142.162 49.6603 141.686 48.511C141.21 47.3617 140.512 46.3173 139.633 45.4377C138.753 44.558 137.709 43.8602 136.559 43.3842C135.41 42.9081 134.178 42.6631 132.934 42.6631C131.69 42.6631 130.458 42.9081 129.309 43.3842C128.16 43.8602 127.115 44.558 126.236 45.4377C125.356 46.3173 124.658 47.3617 124.182 48.511C123.706 49.6603 123.461 50.8922 123.461 52.1362V52.1362Z" stroke="#020064" stroke-width="2.73" stroke-linecap="round" stroke-linejoin="round"/>
<path d="M171.875 136.207L205.058 148.584L219.017 126.198L182.937 116.455L171.875 136.207Z" fill="#D9EDFF"/>
<path d="M224.774 173.98L250.475 148.279C250.575 148.183 250.681 148.091 250.791 148.006C242.189 140.543 240.068 124.73 223.524 116.093C201.747 104.719 174.813 107.433 151.154 136.977C150.613 137.62 150.205 138.365 149.955 139.167C149.704 139.97 149.617 140.814 149.697 141.651C149.777 142.488 150.023 143.301 150.421 144.041C150.819 144.782 151.361 145.435 152.015 145.964C152.669 146.492 153.421 146.885 154.229 147.119C155.037 147.353 155.883 147.424 156.718 147.327C157.553 147.23 158.36 146.967 159.092 146.554C159.825 146.141 160.467 145.586 160.982 144.921C162.551 142.981 164.127 141.175 165.711 139.502C166.267 140.097 166.934 140.577 167.674 140.917C192.427 159.658 197.431 162.039 203.486 164.395C212.85 168.034 216.983 169.792 223.868 176.024C223.91 175.255 224.232 174.527 224.774 173.98ZM207.816 133.977C205.73 136.5 202.828 138.216 199.612 138.826C196.395 139.436 193.066 138.903 190.202 137.318L175.563 130.624C184.106 124.373 192.724 121.763 201.307 122.882C208.61 123.821 210.3 130.28 207.816 133.977Z" fill="white"/>
<path d="M90.3008 227.517C90.3008 228.774 94.6292 229.979 102.334 230.868C110.039 231.757 120.488 232.256 131.385 232.256C142.281 232.256 152.73 231.757 160.435 230.868C168.14 229.979 172.468 228.774 172.468 227.517C172.468 226.26 168.14 225.054 160.435 224.165C152.73 223.277 142.281 222.777 131.385 222.777C120.488 222.777 110.039 223.277 102.334 224.165C94.6292 225.054 90.3008 226.26 90.3008 227.517Z" fill="#B0D9FF"/>
<path d="M188.131 138.789C188.961 138.834 189.773 139.041 190.522 139.399C191.271 139.758 191.942 140.26 192.497 140.878C193.052 141.496 193.48 142.217 193.756 143C194.033 143.783 194.152 144.613 194.107 145.442L192.996 165.955C192.951 166.784 192.743 167.596 192.385 168.345C192.026 169.093 191.523 169.764 190.905 170.318C190.287 170.873 189.566 171.3 188.783 171.575C188 171.851 187.171 171.97 186.342 171.925C185.513 171.88 184.701 171.672 183.952 171.313C183.204 170.954 182.533 170.452 181.979 169.834C181.425 169.216 180.998 168.495 180.722 167.712C180.446 166.929 180.328 166.099 180.373 165.27L181.484 144.76C181.574 143.087 182.325 141.518 183.571 140.398C184.818 139.279 186.458 138.7 188.131 138.789Z" fill="#D9EDFF" stroke="#020064" stroke-width="2.73" stroke-linecap="round" stroke-linejoin="round"/>
<path d="M181.593 136.818C183.072 137.606 184.178 138.95 184.667 140.553C185.156 142.156 184.988 143.888 184.2 145.368L176.657 160.05C175.869 161.529 174.526 162.635 172.922 163.124C171.319 163.613 169.587 163.445 168.107 162.657C166.627 161.869 165.522 160.525 165.033 158.922C164.544 157.318 164.712 155.586 165.5 154.107L173.043 139.425C173.831 137.946 175.175 136.84 176.778 136.351C178.382 135.862 180.114 136.03 181.593 136.818Z" fill="#D9EDFF" stroke="#020064" stroke-width="2.73" stroke-linecap="round" stroke-linejoin="round"/>
<path d="M250.475 148.279C250.575 148.183 250.681 148.091 250.791 148.006C242.189 140.543 240.068 124.73 223.524 116.093C201.747 104.719 174.813 107.433 151.154 136.977C150.613 137.62 150.205 138.365 149.955 139.167C149.704 139.97 149.617 140.814 149.697 141.651C149.777 142.488 150.023 143.301 150.421 144.041C150.819 144.782 151.361 145.435 152.015 145.964C152.669 146.492 153.421 146.885 154.229 147.119C155.037 147.353 155.883 147.424 156.718 147.327C157.553 147.23 158.36 146.967 159.092 146.554C159.825 146.141 160.467 145.586 160.982 144.921C162.551 142.981 164.127 141.175 165.711 139.502C166.267 140.097 166.934 140.577 167.674 140.917C192.427 159.658 197.431 162.039 203.486 164.395C212.85 168.034 216.983 169.792 223.868 176.024L250.475 148.279ZM207.826 133.982C205.74 136.508 202.835 138.223 199.616 138.833C196.398 139.442 193.067 138.906 190.202 137.318L175.563 130.624C184.106 124.373 192.724 121.763 201.307 122.882C208.61 123.821 210.3 130.28 207.816 133.977L207.826 133.982Z" stroke="#020064" stroke-width="2.73" stroke-linecap="round" stroke-linejoin="round"/>
<path d="M202.345 135.232L194.105 123.638L219.767 105.41C220.458 104.919 221.238 104.569 222.064 104.38C222.89 104.191 223.744 104.167 224.579 104.308C225.414 104.45 226.213 104.754 226.931 105.205C227.648 105.655 228.27 106.242 228.76 106.933L229.527 108.011C230.018 108.702 230.368 109.482 230.557 110.308C230.745 111.133 230.77 111.988 230.628 112.823C230.487 113.658 230.182 114.457 229.732 115.175C229.282 115.892 228.694 116.514 228.004 117.004L202.345 135.232Z" fill="#B0D9FF"/>
<path d="M202.345 135.232L194.105 123.638L219.767 105.41C220.458 104.919 221.238 104.569 222.064 104.38C222.89 104.191 223.744 104.167 224.579 104.308C225.414 104.45 226.213 104.754 226.931 105.205C227.648 105.655 228.27 106.242 228.76 106.933L229.527 108.011C230.018 108.702 230.368 109.482 230.557 110.308C230.745 111.133 230.77 111.988 230.628 112.823C230.487 113.658 230.182 114.457 229.732 115.175C229.282 115.892 228.694 116.514 228.004 117.004L202.345 135.232Z" stroke="#020064" stroke-width="2.73" stroke-linecap="round" stroke-linejoin="round"/>
<path d="M195.227 117.028L213.264 104.216C213.766 103.842 214.339 103.574 214.948 103.428C215.557 103.282 216.19 103.26 216.807 103.365C217.425 103.47 218.015 103.698 218.542 104.037C219.068 104.375 219.521 104.817 219.873 105.335" stroke="#020064" stroke-width="2.73" stroke-linecap="round" stroke-linejoin="round"/>
<path d="M153.761 156.177L141.091 165.186C140.811 165.381 140.601 165.661 140.494 165.985C140.387 166.308 140.387 166.658 140.496 166.982C140.604 167.305 140.814 167.585 141.094 167.779C141.375 167.973 141.711 168.071 142.052 168.058C147.364 167.839 154.956 166.876 154.844 163.168L157.421 161.339L153.761 156.177Z" fill="#B0D9FF" stroke="#020064" stroke-width="2.73" stroke-linecap="round" stroke-linejoin="round"/>
<path d="M158.339 162.62L153.764 156.177C153.522 155.835 153.425 155.411 153.495 154.998C153.565 154.585 153.796 154.217 154.138 153.974L160.578 149.398L166.985 158.407L160.523 162.98C160.185 163.218 159.766 163.313 159.358 163.246C158.95 163.179 158.584 162.954 158.339 162.62Z" fill="white"/>
<path d="M158.339 162.62L153.764 156.177C153.522 155.835 153.425 155.411 153.495 154.998C153.565 154.585 153.796 154.217 154.138 153.974L160.578 149.398L166.985 158.407L160.523 162.98C160.185 163.218 159.766 163.313 159.358 163.246C158.95 163.179 158.584 162.954 158.339 162.62V162.62Z" stroke="#020064" stroke-width="2.73" stroke-linecap="round" stroke-linejoin="round"/>
<path d="M166.066 157.127L161.491 150.695C161.25 150.357 161.079 149.974 160.986 149.57C160.893 149.165 160.881 148.746 160.95 148.337C161.02 147.928 161.169 147.536 161.389 147.185C161.61 146.833 161.898 146.529 162.236 146.288L194.106 123.638L202.343 135.232L170.473 157.875C170.134 158.115 169.752 158.286 169.347 158.379C168.943 158.471 168.524 158.483 168.114 158.414C167.705 158.344 167.314 158.195 166.962 157.974C166.611 157.753 166.306 157.465 166.066 157.127Z" fill="#B0D9FF"/>
<path d="M166.066 157.127L161.491 150.695C161.25 150.357 161.079 149.974 160.986 149.57C160.893 149.165 160.881 148.746 160.95 148.337C161.02 147.928 161.169 147.536 161.389 147.185C161.61 146.833 161.898 146.529 162.236 146.288L194.106 123.638L202.343 135.232L170.473 157.875C170.134 158.115 169.752 158.286 169.347 158.379C168.943 158.471 168.524 158.483 168.114 158.414C167.705 158.344 167.314 158.195 166.962 157.974C166.611 157.753 166.306 157.465 166.066 157.127Z" stroke="#020064" stroke-width="2.73" stroke-linecap="round" stroke-linejoin="round"/>
<path d="M207.817 133.975C205.732 136.499 202.83 138.214 199.613 138.824C196.397 139.434 193.068 138.901 190.203 137.317L172.922 129.4C172.165 129.039 171.344 128.833 170.507 128.793C169.669 128.753 168.832 128.88 168.044 129.167C167.256 129.454 166.533 129.894 165.917 130.463C165.301 131.031 164.804 131.717 164.455 132.48C164.107 133.242 163.913 134.066 163.886 134.904C163.859 135.742 163.999 136.577 164.297 137.361C164.596 138.144 165.047 138.86 165.626 139.468C166.204 140.075 166.897 140.561 167.664 140.898C192.417 159.643 197.421 162.02 203.476 164.376" fill="white"/>
<path d="M207.817 133.975C205.732 136.499 202.83 138.214 199.613 138.824C196.397 139.434 193.068 138.901 190.203 137.317L172.922 129.4C172.165 129.039 171.344 128.833 170.507 128.793C169.669 128.753 168.832 128.88 168.044 129.167C167.256 129.454 166.533 129.894 165.917 130.463C165.301 131.031 164.804 131.717 164.455 132.48C164.107 133.242 163.913 134.066 163.886 134.904C163.859 135.742 163.999 136.577 164.297 137.361C164.596 138.144 165.047 138.86 165.626 139.468C166.204 140.075 166.897 140.561 167.664 140.898C192.417 159.643 197.421 162.02 203.476 164.376" stroke="#020064" stroke-width="2.73" stroke-linecap="round" stroke-linejoin="round"/>
<path d="M207.817 133.975C205.732 136.499 202.83 138.214 199.613 138.824C196.397 139.434 193.068 138.901 190.203 137.317L172.922 129.4C172.165 129.039 171.344 128.833 170.507 128.793C169.669 128.753 168.832 128.88 168.044 129.167C167.256 129.454 166.533 129.894 165.917 130.463C165.301 131.031 164.804 131.717 164.455 132.48C164.107 133.242 163.913 134.066 163.886 134.904C163.859 135.742 163.999 136.577 164.297 137.361C164.596 138.144 165.047 138.86 165.626 139.468C166.204 140.075 166.897 140.561 167.664 140.898C192.417 159.643 197.421 162.02 203.476 164.376" fill="white"/>
<path d="M207.817 133.975C205.732 136.499 202.83 138.214 199.613 138.824C196.397 139.434 193.068 138.901 190.203 137.317L172.922 129.4C172.165 129.039 171.344 128.833 170.507 128.793C169.669 128.753 168.832 128.88 168.044 129.167C167.256 129.454 166.533 129.894 165.917 130.463C165.301 131.031 164.804 131.717 164.455 132.48C164.107 133.242 163.913 134.066 163.886 134.904C163.859 135.742 163.999 136.577 164.297 137.361C164.596 138.144 165.047 138.86 165.626 139.468C166.204 140.075 166.897 140.561 167.664 140.898C192.417 159.643 197.421 162.02 203.476 164.376" stroke="#020064" stroke-width="2.73" stroke-linecap="round" stroke-linejoin="round"/>
</g>
</svg>
