<svg width="123" height="49" viewBox="0 0 123 49" fill="none" xmlns="http://www.w3.org/2000/svg">
<path d="M17.6172 23.0181L17.9078 19.9798H30.4576L30.167 23.0181L25.5698 22.6218L25.4641 31.3406L25.7811 38.21H22.0823L22.3993 31.7898L22.2936 22.6482L17.6172 23.0181ZM30.6248 32.6881C30.6248 30.4335 31.2324 28.5224 32.4478 26.9548C33.6631 25.3872 35.081 24.6034 36.7015 24.6034C38.3396 24.6034 39.6078 25.1318 40.5061 26.1886C41.422 27.2454 41.8799 28.6457 41.8799 30.3895C41.8799 32.7145 41.2899 34.652 40.1098 36.202C38.9473 37.7344 37.4765 38.5006 35.6975 38.5006C34.2356 38.5006 33.0202 37.9546 32.0515 36.8625C31.1003 35.7528 30.6248 34.3614 30.6248 32.6881ZM38.9208 31.7633C38.9208 29.2094 38.049 27.9324 36.3052 27.9324C34.491 27.9324 33.5839 29.1301 33.5839 31.5256C33.5839 32.7761 33.8393 33.7537 34.3501 34.4582C34.8609 35.1628 35.5302 35.5151 36.358 35.5151C37.2035 35.5151 37.8376 35.198 38.2603 34.5639C38.7007 33.9122 38.9208 32.9787 38.9208 31.7633ZM50.557 35.6207C49.1832 37.3469 47.9942 38.21 46.9903 38.21C45.7397 38.21 44.7093 37.6992 43.899 36.6776C43.1064 35.656 42.7101 34.3438 42.7101 32.7409C42.7101 30.5392 43.3178 28.6809 44.5331 27.1662C45.7661 25.6514 47.2721 24.894 49.0511 24.894L50.5306 25.1054V24.6034L50.2136 18.421L53.8332 17.7604L53.4897 31.3406V33.6656C53.4897 34.7224 53.7539 35.9378 54.2823 37.3117L51.4289 38.5006C50.9181 37.4438 50.6275 36.4838 50.557 35.6207ZM45.6692 31.367C45.6692 32.4943 45.8718 33.375 46.2769 34.0091C46.6996 34.6432 47.2985 34.9602 48.0735 34.9602C48.8661 34.9602 49.6852 34.6432 50.5306 34.0091V28.3022C49.4738 28.0909 48.69 27.9852 48.1792 27.9852C47.3866 27.9852 46.7701 28.267 46.3297 28.8307C45.8894 29.3943 45.6692 30.2398 45.6692 31.367ZM55.47 32.6881C55.47 30.4335 56.0777 28.5224 57.293 26.9548C58.5084 25.3872 59.9263 24.6034 61.5467 24.6034C63.1848 24.6034 64.453 25.1318 65.3513 26.1886C66.2672 27.2454 66.7252 28.6457 66.7252 30.3895C66.7252 32.7145 66.1351 34.652 64.955 36.202C63.7925 37.7344 62.3217 38.5006 60.5428 38.5006C59.0808 38.5006 57.8655 37.9546 56.8967 36.8625C55.9456 35.7528 55.47 34.3614 55.47 32.6881ZM63.7661 31.7633C63.7661 29.2094 62.8942 27.9324 61.1504 27.9324C59.3362 27.9324 58.4291 29.1301 58.4291 31.5256C58.4291 32.7761 58.6845 33.7537 59.1953 34.4582C59.7061 35.1628 60.3754 35.5151 61.2033 35.5151C62.0487 35.5151 62.6828 35.198 63.1056 34.5639C63.5459 33.9122 63.7661 32.9787 63.7661 31.7633Z" fill="#154886"/>
<path d="M83.1778 38.3421L81.8832 33.1901H75.5686L74.1683 38.21L70.7865 37.9458L73.1115 31.5256L76.6519 20.1647L81.3812 19.8212L84.7894 31.1292L86.9823 37.7608L83.1778 38.3421ZM79.0033 23.2559H78.6598L76.3877 30.3895H81.0905L79.0033 23.2559ZM95.3729 24.8676C96.5002 24.8676 97.4425 25.3608 98.1999 26.3471C98.9749 27.3335 99.3624 28.6633 99.3624 30.3366C99.3624 32.6793 98.7547 34.5815 97.5394 36.0435C96.3417 37.4878 94.8445 38.21 93.0479 38.21C92.678 38.21 92.2641 38.1835 91.8061 38.1307L91.9382 43.177L88.3186 43.8375L88.6621 31.7898H88.6885C88.6181 29.4295 88.4243 27.3159 88.1073 25.4488L91.3041 24.7619C91.4098 25.6954 91.4979 26.6201 91.5684 27.5361C91.6036 27.448 91.7797 27.2102 92.0968 26.8227C92.4314 26.4176 92.9158 25.9949 93.5499 25.5545C94.184 25.0966 94.7917 24.8676 95.3729 24.8676ZM94.3425 28.3022C93.409 28.3022 92.5019 28.5576 91.6212 29.0684V31.3406L91.7269 35.1188C92.678 35.2773 93.4002 35.3565 93.8934 35.3565C95.5843 35.3565 96.4297 34.1852 96.4297 31.8426C96.4297 29.4824 95.734 28.3022 94.3425 28.3022ZM108.028 24.8676C109.155 24.8676 110.097 25.3608 110.855 26.3471C111.63 27.3335 112.017 28.6633 112.017 30.3366C112.017 32.6793 111.41 34.5815 110.194 36.0435C108.997 37.4878 107.499 38.21 105.703 38.21C105.333 38.21 104.919 38.1835 104.461 38.1307L104.593 43.177L100.973 43.8375L101.317 31.7898H101.343C101.273 29.4295 101.079 27.3159 100.762 25.4488L103.959 24.7619C104.065 25.6954 104.153 26.6201 104.223 27.5361C104.258 27.448 104.435 27.2102 104.752 26.8227C105.086 26.4176 105.571 25.9949 106.205 25.5545C106.839 25.0966 107.446 24.8676 108.028 24.8676ZM106.997 28.3022C106.064 28.3022 105.157 28.5576 104.276 29.0684V31.3406L104.382 35.1188C105.333 35.2773 106.055 35.3565 106.548 35.3565C108.239 35.3565 109.085 34.1852 109.085 31.8426C109.085 29.4824 108.389 28.3022 106.997 28.3022ZM117.618 35.7528C118.534 35.7528 118.992 35.3477 118.992 34.5375C118.992 34.2557 118.789 33.9915 118.384 33.7449C117.996 33.4983 117.512 33.2517 116.931 33.0051C116.367 32.7585 115.795 32.4855 115.214 32.1861C114.65 31.869 114.166 31.4375 113.76 30.8915C113.373 30.3454 113.179 29.7202 113.179 29.0156C113.179 27.8355 113.699 26.8051 114.738 25.9244C115.777 25.0437 116.975 24.6034 118.331 24.6034C118.965 24.6034 119.582 24.6826 120.181 24.8412C120.797 24.9821 121.387 25.211 121.951 25.5281L120.181 28.7514C120.057 28.6457 119.899 28.5136 119.705 28.3551C119.511 28.1966 119.141 27.994 118.595 27.7474C118.067 27.4832 117.591 27.3511 117.169 27.3511C116.764 27.3511 116.446 27.448 116.218 27.6417C116.006 27.8179 115.9 28.0733 115.9 28.4079C115.9 28.725 116.2 29.0508 116.799 29.3855C117.415 29.7025 118.085 30.002 118.807 30.2838C119.529 30.548 120.189 30.9971 120.788 31.6312C121.405 32.2477 121.713 32.9875 121.713 33.8506C121.713 35.0835 121.202 36.1668 120.181 37.1003C119.177 38.0338 118.014 38.5006 116.693 38.5006C115.848 38.5006 115.055 38.3156 114.315 37.9458C113.593 37.5759 113.073 37.206 112.756 36.8361L112.281 36.2813L114.368 33.8506C114.474 33.9915 114.623 34.1676 114.817 34.379C115.011 34.5903 115.39 34.8722 115.953 35.2244C116.535 35.5767 117.089 35.7528 117.618 35.7528Z" fill="#E11D23"/>
<path d="M8.52419 28.6709C7.93592 28.8245 7.33093 28.4725 7.21439 27.8758C6.47689 24.0996 6.9948 20.174 8.70633 16.7056C10.5807 12.9072 13.7611 9.91147 17.6647 8.26735C21.5682 6.62322 25.9336 6.44084 29.9607 7.75362C33.6379 8.95235 36.8083 11.3244 38.9947 14.4904C39.3402 14.9907 39.1694 15.6694 38.6485 15.983L35.5196 17.8668C34.9987 18.1804 34.3262 18.0086 33.9653 17.5193C32.5162 15.5546 30.4848 14.0816 28.1463 13.3193C25.4576 12.4428 22.5431 12.5646 19.9369 13.6623C17.3307 14.76 15.2073 16.7601 13.9559 19.2961C12.8675 21.5017 12.5021 23.9842 12.8953 26.3937C12.9932 26.9938 12.6463 27.5949 12.058 27.7484L8.52419 28.6709Z" fill="url(#paint0_linear_24703_15263)"/>
<defs>
<linearGradient id="paint0_linear_24703_15263" x1="-20.076" y1="50.5504" x2="9.69968" y2="-8.08134" gradientUnits="userSpaceOnUse">
<stop stop-color="#4F92E3"/>
<stop offset="1" stop-color="#154886"/>
</linearGradient>
</defs>
</svg>
